<svg xmlns="http://www.w3.org/2000/svg" width="900" height="1400" viewBox="0 0 900 1400" role="img" aria-labelledby="title desc">
  <title id="title">WhatsApp Scheduler placeholder</title>
  <desc id="desc">Portfolio placeholder showing a mobile WhatsApp message scheduler interface.</desc>
  <rect width="900" height="1400" fill="#07131f"/>
  <rect x="180" y="70" width="540" height="1260" rx="56" fill="#111f2d" stroke="#2a465d" stroke-width="5"/>
  <rect x="236" y="132" width="428" height="86" rx="28" fill="#132b3e"/>
  <text x="270" y="187" fill="#ffffff" font-family="Arial, sans-serif" font-size="34" font-weight="700">Programar WhatsApp</text>
  <rect x="236" y="270" width="428" height="154" rx="30" fill="#eaf7ef"/>
  <text x="274" y="342" fill="#0d1d2b" font-family="Arial, sans-serif" font-size="30" font-weight="700">Servidor conectado</text>
  <text x="274" y="386" fill="#4d6679" font-family="Arial, sans-serif" font-size="22">QR vinculado y listo</text>
  <rect x="236" y="480" width="428" height="92" rx="24" fill="#f6f9fc"/>
  <rect x="274" y="516" width="230" height="20" rx="10" fill="#8098aa"/>
  <rect x="236" y="622" width="428" height="92" rx="24" fill="#f6f9fc"/>
  <rect x="274" y="658" width="300" height="20" rx="10" fill="#8098aa"/>
  <rect x="236" y="764" width="196" height="120" rx="26" fill="#132b3e"/>
  <rect x="468" y="764" width="196" height="120" rx="26" fill="#132b3e"/>
  <text x="278" y="836" fill="#ffffff" font-family="Arial, sans-serif" font-size="25" font-weight="700">Fecha</text>
  <text x="512" y="836" fill="#ffffff" font-family="Arial, sans-serif" font-size="25" font-weight="700">Hora</text>
  <rect x="236" y="948" width="428" height="90" rx="26" fill="#20b765"/>
  <text x="324" y="1005" fill="#062014" font-family="Arial, sans-serif" font-size="28" font-weight="700">Programar mensaje</text>
  <rect x="236" y="1092" width="428" height="116" rx="30" fill="#f6f9fc"/>
  <text x="274" y="1158" fill="#0d1d2b" font-family="Arial, sans-serif" font-size="27" font-weight="700">Historial de envios</text>
</svg>
